<svg width="77" height="62" viewBox="0 0 77 62" fill="none" xmlns="http://www.w3.org/2000/svg">
<g filter="url(#filter0_d_2304_4806)">
<path d="M10.8907 9.44912C10.7558 5.57368 13.7752 2 17.8566 2H59.678C63.7593 2 66.7788 5.57368 66.6439 9.44912C66.5142 13.1719 66.6825 17.9942 67.8962 21.9263C69.1137 25.8704 71.1668 28.3635 74.5294 28.6838V32.3162C71.1668 32.6365 69.1137 35.1296 67.8962 39.0737C66.6825 43.0058 66.5142 47.8281 66.6439 51.551C66.7788 55.4263 63.7593 59 59.678 59H17.8566C13.7752 59 10.7558 55.4263 10.8909 51.551C11.0204 47.8281 10.852 43.0058 9.63826 39.0737C8.42087 35.1296 6.36272 32.6365 3 32.3162V28.6838C6.36258 28.3635 8.42087 25.8704 9.63826 21.9263C10.852 17.9942 11.0204 13.1719 10.8907 9.44912Z" fill="url(#paint0_linear_2304_4806)"/>
<path d="M40.3159 45.6521C46.9235 45.6521 50.9053 42.4168 50.9053 37.0804C50.9053 33.0467 48.0642 30.1264 43.8457 29.6641V29.4961C46.945 28.9919 49.3772 26.1137 49.3772 22.8993C49.3772 18.3193 45.7613 15.3359 40.2513 15.3359H27.8538V45.6521H40.3159ZM32.6751 19.1806H39.0891C42.5759 19.1806 44.5559 20.7353 44.5559 23.5505C44.5559 26.5548 42.253 28.2355 38.0775 28.2355H32.6751V19.1806ZM32.6751 41.8075V31.8282H39.0459C43.6089 31.8282 45.9765 33.5088 45.9765 36.7863C45.9765 40.0637 43.6735 41.8075 39.3258 41.8075H32.6751Z" fill="url(#paint1_linear_2304_4806)"/>
<path d="M10.8907 9.44912C10.7558 5.57368 13.7752 2 17.8566 2H59.678C63.7593 2 66.7788 5.57368 66.6439 9.44912C66.5142 13.1719 66.6825 17.9942 67.8962 21.9263C69.1137 25.8704 71.1668 28.3635 74.5294 28.6838V32.3162C71.1668 32.6365 69.1137 35.1296 67.8962 39.0737C66.6825 43.0058 66.5142 47.8281 66.6439 51.551C66.7788 55.4263 63.7593 59 59.678 59H17.8566C13.7752 59 10.7558 55.4263 10.8909 51.551C11.0204 47.8281 10.852 43.0058 9.63826 39.0737C8.42087 35.1296 6.36272 32.6365 3 32.3162V28.6838C6.36258 28.3635 8.42087 25.8704 9.63826 21.9263C10.852 17.9942 11.0204 13.1719 10.8907 9.44912Z" stroke="white" stroke-width="0.139706"/>
<path d="M40.3159 45.6521C46.9235 45.6521 50.9053 42.4168 50.9053 37.0804C50.9053 33.0467 48.0642 30.1264 43.8457 29.6641V29.4961C46.945 28.9919 49.3772 26.1137 49.3772 22.8993C49.3772 18.3193 45.7613 15.3359 40.2513 15.3359H27.8538V45.6521H40.3159ZM32.6751 19.1806H39.0891C42.5759 19.1806 44.5559 20.7353 44.5559 23.5505C44.5559 26.5548 42.253 28.2355 38.0775 28.2355H32.6751V19.1806ZM32.6751 41.8075V31.8282H39.0459C43.6089 31.8282 45.9765 33.5088 45.9765 36.7863C45.9765 40.0637 43.6735 41.8075 39.3258 41.8075H32.6751Z" stroke="white" stroke-width="0.139706"/>
</g>
<defs>
<filter id="filter0_d_2304_4806" x="0.694882" y="0.253705" width="76.1398" height="61.6102" filterUnits="userSpaceOnUse" color-interpolation-filters="sRGB">
<feFlood flood-opacity="0" result="BackgroundImageFix"/>
<feColorMatrix in="SourceAlpha" type="matrix" values="0 0 0 0 0 0 0 0 0 0 0 0 0 0 0 0 0 0 127 0" result="hardAlpha"/>
<feOffset dy="0.558824"/>
<feGaussianBlur stdDeviation="1.11765"/>
<feColorMatrix type="matrix" values="0 0 0 0 0 0 0 0 0 0 0 0 0 0 0 0 0 0 0.15 0"/>
<feBlend mode="normal" in2="BackgroundImageFix" result="effect1_dropShadow_2304_4806"/>
<feBlend mode="normal" in="SourceGraphic" in2="effect1_dropShadow_2304_4806" result="shape"/>
</filter>
<linearGradient id="paint0_linear_2304_4806" x1="13.6287" y1="3.50855" x2="76.1332" y2="53.1247" gradientUnits="userSpaceOnUse">
<stop stop-color="#9013FE"/>
<stop offset="1" stop-color="#6610F2"/>
</linearGradient>
<linearGradient id="paint1_linear_2304_4806" x1="30.0341" y1="17.3314" x2="44.0056" y2="40.9601" gradientUnits="userSpaceOnUse">
<stop stop-color="white"/>
<stop offset="1" stop-color="#F1E5FC"/>
</linearGradient>
</defs>
</svg>
